<svg width="17" height="17" viewBox="0 0 17 17" fill="none" xmlns="http://www.w3.org/2000/svg">
<path fill-rule="evenodd" clip-rule="evenodd" d="M15.3277 2.1142H9.51375L9.1438 2.27279L8.45667 2.94934L7.76954 2.27279L7.39958 2.1142H1.58561L1.05707 2.64274V13.2136L1.58561 13.7421H7.17757L8.08671 14.6406H8.82662L9.73576 13.7421H15.3277L15.8563 13.2136V2.64274L15.3277 2.1142ZM7.92812 13.0233L7.73786 12.8436L7.39958 12.6851H2.11415V3.17128H7.17757L7.95987 3.95352L7.92812 13.0233ZM14.7992 12.6851H9.51375L9.1438 12.8436L8.99579 12.9811V3.91119L9.73576 3.17128H14.7992V12.6851ZM6.34248 5.28543H3.17123V6.34251H6.34248V5.28543ZM6.34248 9.51377H3.17123V10.5709H6.34248V9.51377ZM3.17123 7.3996H6.34248V8.45668H3.17123V7.3996ZM13.7421 5.28543H10.5708V6.34251H13.7421V5.28543ZM10.5708 7.3996H13.7421V8.45668H10.5708V7.3996ZM10.5708 9.51377H13.7421V10.5709H10.5708V9.51377Z" fill="#067D00"/>
</svg>
