<svg width="17" height="17" viewBox="0 0 17 17" fill="none" xmlns="http://www.w3.org/2000/svg">
<path fill-rule="evenodd" clip-rule="evenodd" d="M9.63126 4.92912C9.28359 5.16143 8.87483 5.2854 8.45668 5.2854C7.89597 5.2854 7.35825 5.06263 6.96177 4.66614C6.56529 4.26966 6.34251 3.73194 6.34251 3.17123C6.34251 2.75308 6.46648 2.34439 6.69879 1.99672C6.9311 1.64904 7.2613 1.37798 7.64761 1.21797C8.03393 1.05795 8.45905 1.01613 8.86916 1.0977C9.27927 1.17928 9.65593 1.38064 9.9516 1.67631C10.2473 1.97199 10.4486 2.34871 10.5302 2.75882C10.6118 3.16893 10.57 3.59399 10.4099 3.9803C10.2499 4.36661 9.97893 4.69681 9.63126 4.92912ZM9.04394 2.29234C8.8701 2.17619 8.66576 2.11414 8.45668 2.11414C8.17633 2.11414 7.90747 2.22546 7.70923 2.42371C7.51098 2.62195 7.3996 2.89087 7.3996 3.17123C7.3996 3.3803 7.46158 3.58465 7.57774 3.75848C7.69389 3.93232 7.85899 4.06778 8.05215 4.14779C8.2453 4.2278 8.45783 4.24884 8.66289 4.20805C8.86794 4.16727 9.0563 4.06658 9.20414 3.91875C9.35198 3.77091 9.45266 3.58249 9.49345 3.37743C9.53423 3.17238 9.51332 2.95985 9.43331 2.76669C9.35331 2.57353 9.21778 2.4085 9.04394 2.29234ZM11.8041 2.32524C12.0649 2.15 12.3714 2.05647 12.685 2.05647C13.1056 2.05647 13.5089 2.22449 13.8062 2.52356C14.1036 2.82263 14.2707 3.22826 14.2707 3.65121C14.2707 3.96662 14.1777 4.27495 14.0034 4.5372C13.8292 4.79946 13.5816 5.00386 13.2918 5.12456C13.0021 5.24527 12.6833 5.27685 12.3757 5.21531C12.0681 5.15378 11.7856 5.0019 11.5638 4.77887C11.3421 4.55584 11.191 4.27168 11.1299 3.96233C11.0687 3.65298 11.1001 3.33233 11.2201 3.04093C11.3401 2.74953 11.5433 2.50047 11.8041 2.32524ZM12.3113 4.0271C12.4104 4.12679 12.5448 4.18279 12.685 4.18279C12.8252 4.18279 12.9596 4.12679 13.0588 4.0271C13.1579 3.92741 13.2136 3.7922 13.2136 3.65121C13.2109 3.51108 13.1543 3.37745 13.0558 3.27834C12.9572 3.17923 12.8244 3.12236 12.685 3.11963C12.5448 3.11963 12.4104 3.17564 12.3113 3.27533C12.2122 3.37502 12.1565 3.51023 12.1565 3.65121C12.1565 3.7922 12.2122 3.92741 12.3113 4.0271ZM3.37212 13.1984H5.28545V14.2616H3.37212C3.03753 14.2588 2.71759 14.1231 2.48198 13.8841C2.24637 13.6452 2.11418 13.3223 2.11419 12.9858V11.0721C1.97206 11.0674 1.83233 11.0339 1.70337 10.9736C1.57441 10.9133 1.45886 10.8275 1.36366 10.7212C1.26312 10.6194 1.18413 10.4981 1.13144 10.3647C1.07876 10.2313 1.05347 10.0886 1.05711 9.94513V7.63807C1.06028 7.13979 1.25764 6.66264 1.60679 6.30912C1.9544 5.9586 2.42535 5.75997 2.91758 5.75627H4.86261C4.60048 6.06827 4.40282 6.4297 4.28122 6.81943H2.91758C2.70337 6.82526 2.49935 6.91266 2.34675 7.06396C2.1974 7.21727 2.11388 7.42344 2.11419 7.63807V9.99828H3.17128V12.9858C3.16885 13.0146 3.17228 13.0436 3.18137 13.071C3.19046 13.0984 3.20501 13.1237 3.22413 13.1452C3.26662 13.1783 3.31844 13.1969 3.37212 13.1984ZM11.0888 6.30912C10.7386 5.95601 10.2634 5.75716 9.76748 5.75627H7.14591C6.65369 5.75997 6.18274 5.9586 5.83513 6.30912C5.48598 6.66264 5.28862 7.13979 5.28544 7.63807V10.9977C5.28394 11.2865 5.39382 11.5647 5.592 11.7738C5.6872 11.88 5.80274 11.9658 5.9317 12.0261C6.06066 12.0864 6.20039 12.1199 6.34253 12.1246V14.5805C6.34154 14.7483 6.37374 14.9146 6.43726 15.0697C6.50077 15.2249 6.59434 15.3658 6.71251 15.4842C6.90259 15.6622 7.14243 15.7773 7.39961 15.8138H9.51378C9.81078 15.7769 10.0835 15.6302 10.2789 15.4023C10.4743 15.1743 10.5784 14.8814 10.5709 14.5805V12.1246C10.713 12.1199 10.8527 12.0864 10.9817 12.0261C11.1107 11.9658 11.2262 11.88 11.3214 11.7738C11.4219 11.6719 11.5009 11.5506 11.5536 11.4172C11.6063 11.2839 11.6316 11.1411 11.628 10.9977V7.63807C11.6287 7.14107 11.4351 6.66371 11.0888 6.30912ZM10.5709 11.0508H9.51378V14.5805C9.51299 14.6366 9.49019 14.6901 9.45036 14.7293C9.43232 14.7508 9.40955 14.7678 9.38386 14.7788C9.35817 14.7899 9.33027 14.7948 9.30237 14.7931H7.60046C7.54522 14.7906 7.49292 14.7673 7.45382 14.728C7.41472 14.6887 7.39162 14.6361 7.38904 14.5805V11.0508H6.34253V7.63807C6.34222 7.42344 6.42573 7.21727 6.57509 7.06396C6.72769 6.91266 6.93171 6.82526 7.14591 6.81943H9.76748C9.98216 6.82309 10.1869 6.91081 10.3383 7.06396C10.4137 7.13883 10.4732 7.22832 10.5132 7.327C10.5532 7.42569 10.5728 7.53152 10.5709 7.63807V11.0508ZM13.5413 14.2616H11.6279V13.1984H13.5307C13.5844 13.1969 13.6362 13.1783 13.6787 13.1452C13.6997 13.1246 13.7162 13.0997 13.7271 13.0722C13.738 13.0448 13.7431 13.0153 13.7421 12.9858V9.99828H14.7992V7.63807C14.7995 7.42344 14.716 7.21727 14.5666 7.06396C14.414 6.91266 14.21 6.82526 13.9958 6.81943H12.6322C12.5106 6.4297 12.3129 6.06827 12.0508 5.75627H13.9958C14.488 5.75997 14.959 5.9586 15.3066 6.30912C15.6557 6.66264 15.8531 7.13979 15.8563 7.63807V9.94513C15.8567 10.2333 15.7474 10.5107 15.5508 10.7203C15.3542 10.9299 15.0852 11.0558 14.7992 11.0721V12.9858C14.7992 13.3223 14.667 13.6452 14.4314 13.8841C14.1958 14.1231 13.8759 14.2588 13.5413 14.2616ZM4.22834 2.05647C3.91473 2.05647 3.60817 2.15 3.34741 2.32524C3.08666 2.50047 2.88343 2.74953 2.76341 3.04093C2.6434 3.33233 2.612 3.65298 2.67318 3.96233C2.73436 4.27168 2.88538 4.55584 3.10713 4.77887C3.32889 5.0019 3.61142 5.15378 3.919 5.21531C4.22658 5.27685 4.5454 5.24527 4.83514 5.12456C5.12487 5.00386 5.37251 4.79946 5.54674 4.5372C5.72098 4.27495 5.81397 3.96662 5.81397 3.65121C5.81397 3.22826 5.64691 2.82263 5.34955 2.52356C5.05219 2.22449 4.64888 2.05647 4.22834 2.05647ZM4.22834 4.18279C4.08816 4.18279 3.95373 4.12679 3.85461 4.0271C3.75549 3.92741 3.6998 3.7922 3.6998 3.65121C3.6998 3.51023 3.75549 3.37502 3.85461 3.27533C3.95373 3.17564 4.08816 3.11963 4.22834 3.11963C4.36767 3.12236 4.50054 3.17923 4.59908 3.27834C4.69762 3.37745 4.75418 3.51108 4.75689 3.65121C4.75689 3.7922 4.7012 3.92741 4.60208 4.0271C4.50296 4.12679 4.36852 4.18279 4.22834 4.18279Z" fill="#8E451C"/>
</svg>
