<svg width="17" height="17" viewBox="0 0 17 17" fill="none" xmlns="http://www.w3.org/2000/svg">
<path fill-rule="evenodd" clip-rule="evenodd" d="M9.63126 4.92914C9.28359 5.16145 8.87483 5.28542 8.45668 5.28542C7.89597 5.28542 7.35825 5.06264 6.96177 4.66616C6.56529 4.26968 6.34251 3.73196 6.34251 3.17124C6.34251 2.7531 6.46648 2.34441 6.69879 1.99673C6.9311 1.64906 7.2613 1.378 7.64761 1.21799C8.03393 1.05797 8.45905 1.01615 8.86916 1.09772C9.27927 1.1793 9.65593 1.38066 9.9516 1.67633C10.2473 1.972 10.4486 2.34873 10.5302 2.75884C10.6118 3.16895 10.57 3.594 10.4099 3.98032C10.2499 4.36663 9.97893 4.69683 9.63126 4.92914ZM9.04394 2.29236C8.8701 2.17621 8.66576 2.11416 8.45668 2.11416C8.17633 2.11416 7.90747 2.22548 7.70923 2.42372C7.51098 2.62197 7.3996 2.89089 7.3996 3.17124C7.3996 3.38032 7.46158 3.58466 7.57774 3.7585C7.69389 3.93234 7.85899 4.0678 8.05215 4.14781C8.2453 4.22782 8.45783 4.24886 8.66289 4.20807C8.86794 4.16728 9.0563 4.0666 9.20414 3.91877C9.35198 3.77093 9.45266 3.5825 9.49345 3.37745C9.53423 3.17239 9.51332 2.95987 9.43331 2.76671C9.35331 2.57355 9.21778 2.40852 9.04394 2.29236ZM11.8041 2.32525C12.0649 2.15002 12.3714 2.05649 12.685 2.05649C13.1056 2.05649 13.5089 2.22451 13.8062 2.52358C14.1036 2.82265 14.2707 3.22828 14.2707 3.65123C14.2707 3.96664 14.1777 4.27497 14.0034 4.53722C13.8292 4.79948 13.5816 5.00388 13.2918 5.12458C13.0021 5.24528 12.6833 5.27686 12.3757 5.21533C12.0681 5.1538 11.7856 5.00191 11.5638 4.77888C11.3421 4.55586 11.191 4.2717 11.1299 3.96235C11.0687 3.653 11.1001 3.33235 11.2201 3.04095C11.3401 2.74955 11.5433 2.50049 11.8041 2.32525ZM12.3113 4.02712C12.4104 4.12681 12.5448 4.18281 12.685 4.18281C12.8252 4.18281 12.9596 4.12681 13.0588 4.02712C13.1579 3.92743 13.2136 3.79222 13.2136 3.65123C13.2109 3.5111 13.1543 3.37747 13.0558 3.27836C12.9572 3.17925 12.8244 3.12237 12.685 3.11965C12.5448 3.11965 12.4104 3.17566 12.3113 3.27535C12.2122 3.37504 12.1565 3.51025 12.1565 3.65123C12.1565 3.79222 12.2122 3.92743 12.3113 4.02712ZM3.37212 13.1984H5.28545V14.2616H3.37212C3.03753 14.2588 2.71759 14.1231 2.48198 13.8842C2.24637 13.6452 2.11418 13.3223 2.11419 12.9858V11.0721C1.97206 11.0674 1.83233 11.0339 1.70337 10.9736C1.57441 10.9133 1.45886 10.8275 1.36366 10.7213C1.26312 10.6194 1.18413 10.4981 1.13144 10.3647C1.07876 10.2314 1.05347 10.0886 1.05711 9.94514V7.63808C1.06028 7.13981 1.25764 6.66266 1.60679 6.30913C1.9544 5.95861 2.42535 5.75998 2.91758 5.75629H4.86261C4.60048 6.06828 4.40282 6.42972 4.28122 6.81945H2.91758C2.70337 6.82528 2.49935 6.91268 2.34675 7.06398C2.1974 7.21729 2.11388 7.42345 2.11419 7.63808V9.9983H3.17128V12.9858C3.16885 13.0146 3.17228 13.0436 3.18137 13.071C3.19046 13.0984 3.20501 13.1237 3.22413 13.1453C3.26662 13.1783 3.31844 13.1969 3.37212 13.1984ZM11.0888 6.30913C10.7386 5.95602 10.2634 5.75718 9.76748 5.75629H7.14591C6.65369 5.75998 6.18274 5.95861 5.83513 6.30913C5.48598 6.66266 5.28862 7.13981 5.28544 7.63808V10.9977C5.28394 11.2865 5.39382 11.5647 5.592 11.7738C5.6872 11.88 5.80274 11.9659 5.9317 12.0261C6.06066 12.0864 6.20039 12.1199 6.34253 12.1246V14.5805C6.34154 14.7483 6.37374 14.9146 6.43726 15.0697C6.50077 15.2249 6.59434 15.3658 6.71251 15.4842C6.90259 15.6622 7.14243 15.7773 7.39961 15.8138H9.51378C9.81078 15.7769 10.0835 15.6302 10.2789 15.4023C10.4743 15.1743 10.5784 14.8814 10.5709 14.5805V12.1246C10.713 12.1199 10.8527 12.0864 10.9817 12.0261C11.1107 11.9659 11.2262 11.88 11.3214 11.7738C11.4219 11.6719 11.5009 11.5507 11.5536 11.4173C11.6063 11.2839 11.6316 11.1412 11.628 10.9977V7.63808C11.6287 7.14109 11.4351 6.66373 11.0888 6.30913ZM10.5709 11.0508H9.51378V14.5805C9.51299 14.6366 9.49019 14.6901 9.45036 14.7294C9.43232 14.7508 9.40955 14.7678 9.38386 14.7789C9.35817 14.7899 9.33027 14.7948 9.30237 14.7932H7.60046C7.54522 14.7906 7.49293 14.7673 7.45382 14.728C7.41472 14.6887 7.39162 14.6361 7.38904 14.5805V11.0508H6.34253V7.63808C6.34222 7.42345 6.42573 7.21729 6.57509 7.06398C6.72769 6.91268 6.93171 6.82528 7.14591 6.81945H9.76748C9.98216 6.8231 10.1869 6.91083 10.3383 7.06398C10.4137 7.13884 10.4732 7.22833 10.5132 7.32702C10.5532 7.42571 10.5728 7.53154 10.5709 7.63808V11.0508ZM13.5413 14.2616H11.6279V13.1984H13.5307C13.5844 13.1969 13.6362 13.1783 13.6787 13.1453C13.6997 13.1246 13.7162 13.0997 13.7271 13.0722C13.738 13.0448 13.7431 13.0153 13.7421 12.9858V9.9983H14.7992V7.63808C14.7995 7.42345 14.716 7.21729 14.5666 7.06398C14.414 6.91268 14.21 6.82528 13.9958 6.81945H12.6322C12.5106 6.42972 12.3129 6.06828 12.0508 5.75629H13.9958C14.488 5.75998 14.959 5.95861 15.3066 6.30913C15.6557 6.66266 15.8531 7.13981 15.8563 7.63808V9.94514C15.8567 10.2333 15.7474 10.5107 15.5508 10.7203C15.3542 10.9299 15.0852 11.0558 14.7992 11.0721V12.9858C14.7992 13.3223 14.667 13.6452 14.4314 13.8842C14.1958 14.1231 13.8759 14.2588 13.5413 14.2616ZM4.22834 2.05649C3.91474 2.05649 3.60817 2.15002 3.34741 2.32525C3.08666 2.50049 2.88343 2.74955 2.76341 3.04095C2.6434 3.33235 2.612 3.653 2.67318 3.96235C2.73436 4.2717 2.88538 4.55586 3.10713 4.77888C3.32889 5.00191 3.61142 5.1538 3.919 5.21533C4.22658 5.27686 4.5454 5.24528 4.83514 5.12458C5.12487 5.00388 5.37251 4.79948 5.54674 4.53722C5.72098 4.27497 5.81397 3.96664 5.81397 3.65123C5.81397 3.22828 5.64691 2.82265 5.34955 2.52358C5.05219 2.22451 4.64888 2.05649 4.22834 2.05649ZM4.22834 4.18281C4.08816 4.18281 3.95373 4.12681 3.85461 4.02712C3.75549 3.92743 3.6998 3.79222 3.6998 3.65123C3.6998 3.51025 3.75549 3.37504 3.85461 3.27535C3.95373 3.17566 4.08816 3.11965 4.22834 3.11965C4.36767 3.12237 4.50054 3.17925 4.59908 3.27836C4.69762 3.37747 4.75418 3.5111 4.75689 3.65123C4.75689 3.79222 4.7012 3.92743 4.60208 4.02712C4.50296 4.12681 4.36852 4.18281 4.22834 4.18281Z" fill="#424242"/>
</svg>
