<svg width="17" height="17" viewBox="0 0 17 17" fill="none" xmlns="http://www.w3.org/2000/svg">
<path fill-rule="evenodd" clip-rule="evenodd" d="M14.7992 1.58561L14.2707 1.05707H3.9535C3.71106 1.05975 3.47111 1.10631 3.24525 1.19449C3.01759 1.29566 2.81243 1.44128 2.6418 1.6228C2.47116 1.80433 2.3385 2.0181 2.25159 2.25157C2.16513 2.4595 2.11851 2.68182 2.11417 2.90697V12.9493C2.11163 13.1922 2.15838 13.4332 2.25159 13.6575C2.43886 14.1093 2.79553 14.4697 3.24525 14.6618C3.47111 14.7499 3.71106 14.7965 3.9535 14.7992H4.22834V13.7421H3.9535C3.84802 13.7424 3.74363 13.7208 3.64695 13.6787C3.45557 13.5993 3.3035 13.4472 3.22411 13.2558C3.19034 13.1571 3.17249 13.0536 3.17126 12.9493V12.4207C3.17249 12.3164 3.19034 12.2129 3.22411 12.1142C3.3035 11.9228 3.45557 11.7707 3.64695 11.6913C3.74115 11.6503 3.84266 11.6287 3.94537 11.6279H4.22834V11.6279H13.7421V13.7421H9.51377V14.7992H14.2707L14.7992 14.2706V11.6279V10.5708V1.58561ZM4.22834 2.11417V10.5708H13.7421V2.11415H3.9535L3.94543 2.11417H4.22834ZM5.28543 3.17126H6.34251V4.22834H5.28543V3.17126ZM5.28543 5.28543H6.34251V6.34251H5.28543V5.28543ZM6.34251 7.3996H5.28543V8.45668H6.34251V7.3996ZM6.87106 14.2601L5.58141 15.8563H5.28543V12.685H8.45668V15.8563H8.1607L6.87106 14.2601Z" fill="#424242"/>
</svg>
