<svg width="17" height="17" viewBox="0 0 17 17" fill="none" xmlns="http://www.w3.org/2000/svg">
<path fill-rule="evenodd" clip-rule="evenodd" d="M15.6158 3.68395L14.7926 3.48969L12.5635 5.70496L11.3009 4.41927L13.4745 2.13924L13.2849 1.30219C12.8254 1.14865 12.3449 1.06751 11.8605 1.0617C11.3322 1.05333 10.808 1.1541 10.3205 1.35769C9.84978 1.57084 9.42429 1.87223 9.06711 2.2456C8.66947 2.62217 8.35448 3.07733 8.14216 3.58216C7.73342 4.58739 7.73342 5.71252 8.14216 6.71776C6.25064 8.56766 3.12894 11.7264 1.61665 13.308C1.39494 13.5988 1.28799 13.9609 1.31609 14.3254C1.32592 14.5197 1.37464 14.71 1.45943 14.8851C1.54362 15.0605 1.66147 15.2176 1.80628 15.3476C1.93746 15.491 2.09432 15.6086 2.26876 15.6944C2.44853 15.7737 2.64135 15.8191 2.83759 15.8285C3.17124 15.8221 3.49145 15.6957 3.73945 15.4724C5.37661 13.9324 8.51216 10.769 10.2927 8.91451C10.7754 9.11938 11.2945 9.22479 11.8189 9.22439C12.3468 9.22401 12.8692 9.11782 13.3553 8.91208C13.8415 8.70635 14.2814 8.40521 14.6492 8.02654C15.4047 7.25624 15.8266 6.21961 15.8239 5.1407C15.8358 4.64692 15.7654 4.15465 15.6158 3.68395ZM3.10123 14.7232C3.06034 14.7594 3.01104 14.7848 2.95784 14.7972C2.90581 14.8062 2.85264 14.8062 2.80061 14.7972C2.74584 14.789 2.69362 14.7684 2.64796 14.7371C2.59929 14.7086 2.55813 14.669 2.52777 14.6214C2.37978 14.4688 2.241 14.1821 2.37975 14.0203C3.82729 12.4802 6.81025 9.46947 8.67402 7.62882C8.78082 7.76883 8.89669 7.90169 9.02088 8.02654C9.1461 8.15635 9.28057 8.27692 9.42323 8.38728C7.61958 10.2372 4.67827 13.2109 3.10123 14.7232ZM14.8527 5.1407C14.8553 5.94955 14.5398 6.72701 13.974 7.30511C13.4086 7.85985 12.648 8.17061 11.8559 8.17061C11.0637 8.17061 10.3032 7.85985 9.73774 7.30511C9.32354 6.87256 9.04062 6.33131 8.92191 5.74431C8.8032 5.15731 8.85354 4.54865 9.06711 3.98914C9.20931 3.6087 9.42975 3.26231 9.71414 2.97234C9.99853 2.68238 10.3406 2.45528 10.7182 2.30573C11.0768 2.15494 11.4622 2.07788 11.8512 2.07912H12.1195L10.2002 4.05853V4.79384L12.2027 6.78714H12.901L14.8527 4.86786V5.1407ZM3.42494 7.06927H5.0436L5.78818 7.82773L6.50504 7.1155L5.80207 6.3987V6.35241L5.86219 4.60893L5.63095 4.14645L2.60635 2.15779L1.98202 2.22717L1.10331 3.12434L1.03392 3.75793L2.97635 6.84266L3.42494 7.06927ZM2.42598 3.2307L4.87249 4.84016L4.83088 6.0287H3.69315L2.11615 3.53132L2.42598 3.2307ZM9.93657 10.5887L10.6488 9.8765L13.9324 13.2433C14.2089 13.5339 14.3632 13.9198 14.3632 14.3209C14.3632 14.7221 14.2089 15.1079 13.9324 15.3985C13.7244 15.6119 13.4571 15.7578 13.1651 15.8171C12.8731 15.8765 12.57 15.8467 12.2952 15.7314C12.1197 15.6536 11.9622 15.5403 11.8328 15.3985L8.51217 12.0131L9.22903 11.2963L12.5403 14.6724C12.5849 14.7215 12.6404 14.7595 12.7022 14.7834C12.8238 14.8328 12.9598 14.8328 13.0814 14.7834C13.1433 14.7595 13.1987 14.7215 13.2433 14.6724C13.2898 14.6265 13.326 14.5714 13.3496 14.5105C13.3735 14.4485 13.3861 14.3827 13.3867 14.3163C13.3856 14.2499 13.373 14.1842 13.3496 14.122C13.326 14.0612 13.2898 14.006 13.2433 13.9602L9.93657 10.5887Z" fill="black"/>
</svg>
