<svg width="17" height="17" viewBox="0 0 17 17" fill="none" xmlns="http://www.w3.org/2000/svg">
<path fill-rule="evenodd" clip-rule="evenodd" d="M15.3277 2.1142H9.51377L9.14381 2.27279L8.45668 2.94934L7.76955 2.27279L7.3996 2.1142H1.58563L1.05708 2.64274V13.2136L1.58563 13.7421H7.17759L8.08673 14.6406H8.82664L9.73578 13.7421H15.3277L15.8563 13.2136V2.64274L15.3277 2.1142ZM7.92814 13.0233L7.73787 12.8436L7.3996 12.6851H2.11417V3.17128H7.17759L7.95988 3.95352L7.92814 13.0233ZM14.7992 12.6851H9.51377L9.14381 12.8436L8.99581 12.9811V3.91119L9.73578 3.17128H14.7992V12.6851ZM6.34251 5.28543H3.17126V6.34251H6.34251V5.28543ZM6.34251 9.51377H3.17126V10.5709H6.34251V9.51377ZM3.17126 7.3996H6.34251V8.45668H3.17126V7.3996ZM13.7421 5.28543H10.5709V6.34251H13.7421V5.28543ZM10.5709 7.3996H13.7421V8.45668H10.5709V7.3996ZM10.5709 9.51377H13.7421V10.5709H10.5709V9.51377Z" fill="#89D185"/>
</svg>
