<svg width="17" height="17" viewBox="0 0 17 17" fill="none" xmlns="http://www.w3.org/2000/svg">
<path fill-rule="evenodd" clip-rule="evenodd" d="M15.6158 3.68395L14.7925 3.48969L12.5634 5.70496L11.3009 4.41927L13.4745 2.13924L13.2849 1.30219C12.8254 1.14865 12.3449 1.06751 11.8605 1.0617C11.3322 1.05333 10.808 1.1541 10.3204 1.35769C9.84976 1.57084 9.42427 1.87223 9.0671 2.2456C8.66945 2.62217 8.35447 3.07733 8.14215 3.58216C7.73341 4.58739 7.73341 5.71252 8.14215 6.71776C6.25063 8.56766 3.12893 11.7264 1.61664 13.308C1.39492 13.5988 1.28797 13.9609 1.31607 14.3254C1.3259 14.5197 1.37463 14.71 1.45941 14.8851C1.54361 15.0605 1.66146 15.2176 1.80627 15.3476C1.93745 15.491 2.0943 15.6086 2.26874 15.6944C2.44851 15.7737 2.64134 15.8191 2.83758 15.8285C3.17123 15.8221 3.49144 15.6957 3.73944 15.4724C5.3766 13.9324 8.51214 10.769 10.2927 8.91451C10.7754 9.11938 11.2945 9.22479 11.8189 9.22439C12.3467 9.22401 12.8692 9.11782 13.3553 8.91208C13.8415 8.70635 14.2814 8.40521 14.6492 8.02654C15.4046 7.25624 15.8266 6.21961 15.8239 5.1407C15.8358 4.64692 15.7654 4.15465 15.6158 3.68395ZM3.10122 14.7232C3.06033 14.7594 3.01102 14.7848 2.95782 14.7972C2.90579 14.8062 2.85263 14.8062 2.8006 14.7972C2.74583 14.789 2.6936 14.7684 2.64795 14.7371C2.59928 14.7086 2.55812 14.669 2.52775 14.6214C2.37976 14.4688 2.24099 14.1821 2.37973 14.0203C3.82728 12.4802 6.81023 9.46947 8.67401 7.62882C8.78081 7.76883 8.89668 7.90169 9.02086 8.02654C9.14609 8.15635 9.28056 8.27692 9.42321 8.38728C7.61956 10.2372 4.67826 13.2109 3.10122 14.7232ZM14.8527 5.1407C14.8553 5.94955 14.5397 6.72701 13.974 7.30511C13.4085 7.85985 12.648 8.17061 11.8558 8.17061C11.0637 8.17061 10.3032 7.85985 9.73772 7.30511C9.32352 6.87256 9.04061 6.33131 8.9219 5.74431C8.80319 5.15731 8.85352 4.54865 9.0671 3.98914C9.2093 3.6087 9.42974 3.26231 9.71412 2.97234C9.99851 2.68238 10.3406 2.45528 10.7182 2.30573C11.0768 2.15494 11.4621 2.07788 11.8512 2.07912H12.1195L10.2002 4.05853V4.79384L12.2027 6.78714H12.901L14.8527 4.86786V5.1407ZM3.42492 7.06927H5.04359L5.78816 7.82773L6.50502 7.1155L5.80205 6.3987V6.35241L5.86217 4.60893L5.63094 4.14645L2.60633 2.15779L1.982 2.22717L1.10329 3.12434L1.03391 3.75793L2.97634 6.84266L3.42492 7.06927ZM2.42596 3.2307L4.87247 4.84016L4.83086 6.0287H3.69314L2.11614 3.53132L2.42596 3.2307ZM9.93656 10.5887L10.6488 9.8765L13.9323 13.2433C14.2089 13.5339 14.3632 13.9198 14.3632 14.3209C14.3632 14.7221 14.2089 15.1079 13.9323 15.3985C13.7244 15.6119 13.4571 15.7578 13.1651 15.8171C12.8731 15.8765 12.57 15.8467 12.2952 15.7314C12.1197 15.6536 11.9622 15.5403 11.8328 15.3985L8.51216 12.0131L9.22901 11.2963L12.5403 14.6724C12.5849 14.7215 12.6403 14.7595 12.7022 14.7834C12.8238 14.8328 12.9598 14.8328 13.0814 14.7834C13.1433 14.7595 13.1987 14.7215 13.2433 14.6724C13.2897 14.6265 13.326 14.5714 13.3496 14.5105C13.3735 14.4485 13.3861 14.3827 13.3867 14.3163C13.3856 14.2499 13.373 14.1842 13.3496 14.122C13.326 14.0612 13.2897 14.006 13.2433 13.9602L9.93656 10.5887Z" fill="white"/>
</svg>
